<svg width="34" height="34" viewBox="0 0 34 34" fill="none" xmlns="http://www.w3.org/2000/svg">
<path d="M17 2.42857C25.0143 2.42857 31.5714 8.98571 31.5714 17C31.5714 25.0143 25.0143 31.5714 17 31.5714C8.98571 31.5714 2.42857 25.0143 2.42857 17C2.42857 8.98571 8.98571 2.42857 17 2.42857ZM17 0C7.65 0 0 7.65 0 17C0 26.35 7.65 34 17 34C26.35 34 34 26.35 34 17C34 7.65 26.35 0 17 0Z" fill="black"/>
<path d="M26.7147 15.7856H18.2147V7.28564H15.7861V15.7856H7.28613V18.2142H15.7861V26.7142H18.2147V18.2142H26.7147V15.7856Z" fill="black"/>
</svg>
