<svg width="28" height="33" viewBox="0 0 28 33" fill="none" xmlns="http://www.w3.org/2000/svg">
<path d="M8.61525 11.8459C8.90087 11.8459 9.17479 11.9594 9.37675 12.1614C9.57872 12.3633 9.69218 12.6373 9.69218 12.9229V25.8459C9.69218 26.1316 9.57872 26.4055 9.37675 26.6074C9.17479 26.8094 8.90087 26.9229 8.61525 26.9229C8.32964 26.9229 8.05572 26.8094 7.85375 26.6074C7.65179 26.4055 7.53833 26.1316 7.53833 25.8459V12.9229C7.53833 12.6373 7.65179 12.3633 7.85375 12.1614C8.05572 11.9594 8.32964 11.8459 8.61525 11.8459ZM13.9999 11.8459C14.2855 11.8459 14.5594 11.9594 14.7614 12.1614C14.9633 12.3633 15.0768 12.6373 15.0768 12.9229V25.8459C15.0768 26.1316 14.9633 26.4055 14.7614 26.6074C14.5594 26.8094 14.2855 26.9229 13.9999 26.9229C13.7143 26.9229 13.4403 26.8094 13.2384 26.6074C13.0364 26.4055 12.9229 26.1316 12.9229 25.8459V12.9229C12.9229 12.6373 13.0364 12.3633 13.2384 12.1614C13.4403 11.9594 13.7143 11.8459 13.9999 11.8459ZM20.4614 12.9229C20.4614 12.6373 20.3479 12.3633 20.146 12.1614C19.944 11.9594 19.6701 11.8459 19.3845 11.8459C19.0989 11.8459 18.8249 11.9594 18.623 12.1614C18.421 12.3633 18.3076 12.6373 18.3076 12.9229V25.8459C18.3076 26.1316 18.421 26.4055 18.623 26.6074C18.8249 26.8094 19.0989 26.9229 19.3845 26.9229C19.6701 26.9229 19.944 26.8094 20.146 26.6074C20.3479 26.4055 20.4614 26.1316 20.4614 25.8459V12.9229Z" fill="black"/>
<path fill-rule="evenodd" clip-rule="evenodd" d="M28 6.46154C28 7.03277 27.7731 7.58061 27.3692 7.98453C26.9652 8.38846 26.4174 8.61538 25.8462 8.61538H24.7692V28C24.7692 29.1425 24.3154 30.2381 23.5075 31.046C22.6997 31.8538 21.604 32.3077 20.4615 32.3077H7.53846C6.39599 32.3077 5.30031 31.8538 4.49246 31.046C3.68461 30.2381 3.23077 29.1425 3.23077 28V8.61538H2.15385C1.58261 8.61538 1.03477 8.38846 0.630847 7.98453C0.226922 7.58061 0 7.03277 0 6.46154V4.30769C0 3.73646 0.226922 3.18862 0.630847 2.78469C1.03477 2.38077 1.58261 2.15385 2.15385 2.15385H9.69231C9.69231 1.58261 9.91923 1.03477 10.3232 0.630847C10.7271 0.226922 11.2749 0 11.8462 0L16.1538 0C16.7251 0 17.2729 0.226922 17.6768 0.630847C18.0808 1.03477 18.3077 1.58261 18.3077 2.15385H25.8462C26.4174 2.15385 26.9652 2.38077 27.3692 2.78469C27.7731 3.18862 28 3.73646 28 4.30769V6.46154ZM5.63877 8.61538L5.38462 8.74246V28C5.38462 28.5712 5.61154 29.1191 6.01546 29.523C6.41939 29.9269 6.96723 30.1538 7.53846 30.1538H20.4615C21.0328 30.1538 21.5806 29.9269 21.9845 29.523C22.3885 29.1191 22.6154 28.5712 22.6154 28V8.74246L22.3612 8.61538H5.63877ZM2.15385 6.46154V4.30769H25.8462V6.46154H2.15385Z" fill="black"/>
</svg>
