<svg width="36" height="36" viewBox="0 0 36 36" fill="none" xmlns="http://www.w3.org/2000/svg">
<path d="M32.33 6.00004C32.1937 5.98599 32.0563 5.98599 31.92 6.00004H3.92001C3.74056 6.0028 3.56229 6.02971 3.39001 6.08004L17.84 20.47L32.33 6.00004Z" fill="black"/>
<path d="M33.81 7.38989L19.25 21.8899C18.8753 22.2624 18.3684 22.4715 17.84 22.4715C17.3116 22.4715 16.8047 22.2624 16.43 21.8899L1.99999 7.49989C1.95563 7.66293 1.93211 7.83094 1.92999 7.99989V27.9999C1.92999 28.5303 2.14071 29.039 2.51578 29.4141C2.89085 29.7892 3.39956 29.9999 3.92999 29.9999H31.93C32.4604 29.9999 32.9691 29.7892 33.3442 29.4141C33.7193 29.039 33.93 28.5303 33.93 27.9999V7.99989C33.922 7.79155 33.8815 7.58573 33.81 7.38989V7.38989ZM5.29999 27.9999H3.90999V26.5699L11.18 19.3599L12.59 20.7699L5.29999 27.9999ZM31.91 27.9999H30.51L23.22 20.7699L24.63 19.3599L31.9 26.5699L31.91 27.9999Z" fill="black"/>
</svg>
